<svg xmlns="http://www.w3.org/2000/svg" width="22" height="22" viewBox="0 0 22 22" fill="none"><circle cx="11" cy="11" r="11" fill="#00C194"></circle><path d="M11.8847 8.23371C12.0256 8.0996 12.213 8.02546 12.4075 8.02693C12.602 8.02841 12.7883 8.10538 12.9272 8.2416C13.066 8.37783 13.1464 8.56266 13.1516 8.75709C13.1567 8.95152 13.0861 9.14034 12.9547 9.28372L8.96471 14.2737C8.8961 14.3476 8.81329 14.4069 8.72124 14.4481C8.62919 14.4892 8.52978 14.5114 8.42896 14.5133C8.32814 14.5152 8.22798 14.4967 8.13446 14.4589C8.04095 14.4212 7.95601 14.365 7.88471 14.2937L5.23871 11.6477C5.16502 11.5791 5.10592 11.4963 5.06493 11.4043C5.02394 11.3123 5.00189 11.2129 5.00012 11.1122C4.99834 11.0115 5.01686 10.9115 5.05459 10.8181C5.09231 10.7247 5.14845 10.6399 5.21967 10.5687C5.29089 10.4975 5.37572 10.4413 5.46911 10.4036C5.5625 10.3659 5.66253 10.3473 5.76323 10.3491C5.86393 10.3509 5.96325 10.3729 6.05525 10.4139C6.14725 10.4549 6.23005 10.514 6.29871 10.5877L8.39271 12.6807L11.8647 8.25572C11.8709 8.24799 11.8776 8.24065 11.8847 8.23371ZM10.9647 13.3737L11.8847 14.2937C11.956 14.3649 12.0409 14.4209 12.1343 14.4586C12.2277 14.4962 12.3278 14.5146 12.4285 14.5128C12.5292 14.5109 12.6284 14.4888 12.7204 14.4477C12.8124 14.4066 12.8951 14.3475 12.9637 14.2737L16.9557 9.28372C17.0274 9.21292 17.0841 9.12839 17.1224 9.03519C17.1608 8.94199 17.1799 8.84202 17.1787 8.74126C17.1776 8.64049 17.1561 8.541 17.1156 8.44871C17.0751 8.35643 17.0165 8.27325 16.9431 8.20414C16.8698 8.13504 16.7833 8.08142 16.6887 8.04649C16.5942 8.01156 16.4936 7.99604 16.393 8.00086C16.2923 8.00567 16.1936 8.03072 16.1029 8.07451C16.0121 8.1183 15.9311 8.17992 15.8647 8.25572L12.3917 12.6807L11.9067 12.1947L10.9637 13.3737H10.9647Z" fill="white"></path></svg>