<svg xmlns="http://www.w3.org/2000/svg" width="53" height="44" viewBox="0 0 53 44" fill="none"><path d="M28.5385 18L28.5385 6C28.5385 4.33333 29.133 2.91667 30.3221 1.75C31.5112 0.583334 32.9551 -1.75238e-06 34.6538 -1.60387e-06L46.8846 -5.34624e-07C48.5833 -3.86117e-07 50.0272 0.583336 51.2163 1.75C52.4055 2.91667 53 4.33333 53 6L53 28C53 30.1667 52.5753 32.2292 51.726 34.1875C50.8554 36.1667 49.6875 37.875 48.2224 39.3125C46.7572 40.75 45.0266 41.8854 43.0306 42.7187C41.0134 43.5729 38.9006 44 36.6923 44L34.6538 44C34.1018 44 33.624 43.8021 33.2206 43.4062C32.8171 43.0104 32.6154 42.5417 32.6154 42L32.6154 38C32.6154 37.4583 32.8171 36.9896 33.2206 36.5937C33.624 36.1979 34.1018 36 34.6538 36L36.6923 36C38.9431 36 40.8648 35.2187 42.4573 33.6562C44.0499 32.0938 44.8462 30.2083 44.8462 28L44.8462 27C44.8462 26.1667 44.5489 25.4583 43.9543 24.875C43.3598 24.2917 42.6378 24 41.7885 24L34.6538 24C32.9551 24 31.5112 23.4167 30.3221 22.25C29.133 21.0833 28.5385 19.6667 28.5385 18ZM2.27299e-06 18L3.32207e-06 6C3.46777e-06 4.33333 0.594555 2.91666 1.78366 1.75C2.97276 0.583332 4.41667 -4.24729e-06 6.11539 -4.09878e-06L18.3462 -3.02954e-06C20.0449 -2.88103e-06 21.4888 0.583333 22.6779 1.75C23.867 2.91667 24.4615 4.33333 24.4615 6L24.4615 28C24.4615 30.1667 24.0369 32.2292 23.1875 34.1875C22.3169 36.1667 21.149 37.875 19.6839 39.3125C18.2188 40.75 16.4882 41.8854 14.4922 42.7187C12.475 43.5729 10.3622 44 8.15385 44L6.11539 44C5.5633 44 5.08554 43.8021 4.68209 43.4062C4.27864 43.0104 4.07692 42.5417 4.07692 42L4.07692 38C4.07692 37.4583 4.27865 36.9896 4.68209 36.5937C5.08554 36.1979 5.5633 36 6.11539 36L8.15385 36C10.4046 36 12.3263 35.2187 13.9189 33.6562C15.5114 32.0937 16.3077 30.2083 16.3077 28L16.3077 27C16.3077 26.1667 16.0104 25.4583 15.4159 24.875C14.8213 24.2917 14.0994 24 13.25 24L6.11539 24C4.41667 24 2.97276 23.4167 1.78366 22.25C0.594553 21.0833 2.12729e-06 19.6667 2.27299e-06 18Z" fill="#F3F3F3"></path></svg>